<svg width="160" height="69" fill="none" xmlns="http://www.w3.org/2000/svg"><path d="m28.066 40.51-.162-.316c-.613-1.177-2.09-1.942-3.402-1.76-1.127.154-2.066 1.091-2.395 2.413-.356 1.426-.1 2.801.414 4.138.836 2.18 2.161 4.044 3.793 5.693 1.129 1.141 2.029 1.122 3.14-.039 1.542-1.611 2.794-3.42 3.662-5.483.512-1.215.889-2.467.946-3.795.041-.96-.082-1.884-.629-2.708-.693-1.046-1.834-1.354-2.957-.802-.697.344-1.249.856-1.684 1.492-.25.365-.468.75-.726 1.167zm21.722 6.127c-.026 1.797-.431 3.51-1.259 5.1-1.404 2.7-3.436 4.791-6.156 6.194-2.68 1.382-5.428 1.54-8.236.44a63.211 63.211 0 0 1-3.387-1.42c-2.019-.931-4.03-.922-6.094-.15a60.575 60.575 0 0 1-4.408 1.47c-1.54.445-3.126.608-4.732.424-1.39-.158-2.563-.773-3.58-1.705-1.296-1.187-2.334-2.573-2.988-4.208-.84-2.096-.638-4.117.584-6.026.956-1.495 2.248-2.688 3.498-3.921.91-.897 1.8-1.818 2.638-2.782.966-1.111 1.543-2.453 2.022-3.832.444-1.278.847-2.571 1.285-3.852.317-.926.898-1.696 1.472-2.476 1.382-1.878 3.353-2.7 5.53-3.184 2.58-.573 4.83.166 6.748 1.863 1.18 1.044 2.203 2.268 3.302 3.405 1.871 1.937 3.857 3.746 6.082 5.274 1.107.76 2.27 1.443 3.367 2.216 1.572 1.105 2.897 2.447 3.706 4.229.424.933.591 1.922.605 2.941zM24.452 19.99c.004 1.438-.25 2.992-.932 4.451-.73 1.561-1.785 2.796-3.521 3.276-1.428.396-2.747.077-3.976-.69-1.617-1.01-2.711-2.476-3.524-4.162-1.181-2.447-1.637-5.037-1.395-7.743.144-1.599.596-3.093 1.489-4.452 1.54-2.344 4.309-3.007 6.716-1.58 1.562.925 2.656 2.276 3.488 3.854 1.133 2.15 1.674 4.45 1.655 7.045zM41.263 15.703c.003 2.932-.538 5.391-1.872 7.641-.745 1.259-1.699 2.33-3.017 3.018-1.927 1.008-4.048.639-5.561-.936-1.198-1.247-1.848-2.764-2.196-4.425-.6-2.87-.29-5.675.726-8.403.492-1.32 1.211-2.528 2.244-3.503.952-.898 2.037-1.601 3.388-1.713 1.72-.143 3.07.585 4.15 1.873 1.112 1.328 1.667 2.902 1.943 4.583.119.725.155 1.463.195 1.865zM.95 29.834c.023-1.31.273-2.54 1.051-3.608 1.017-1.396 2.441-1.91 4.124-1.805 1.702.107 3.15.842 4.452 1.88 2.317 1.847 3.85 4.206 4.46 7.125.27 1.29.29 2.594-.163 3.852-.776 2.162-2.548 3.279-4.856 3.1-1.437-.111-2.701-.685-3.861-1.503-2.5-1.763-4.11-4.159-4.926-7.087-.175-.63-.192-1.302-.282-1.954zM53.56 25.75c-.387 4.066-2.041 7.21-5.25 9.473a6.182 6.182 0 0 1-2.987 1.104c-1.85.187-3.533-.855-4.229-2.637-.61-1.567-.575-3.171-.19-4.767.74-3.071 2.39-5.552 4.985-7.371 1.148-.805 2.451-1.134 3.852-1.017 1.63.136 3.006 1.358 3.483 3.155.192.727.247 1.49.336 2.06zM129.829 39.236h3.743l-4.935 5.972 5.37 6.484h-3.855l-5.091-6.317v6.317h-3.398V39.236h3.398v6.05l4.768-6.05zM119.313 45.442c0 1.04-.141 1.96-.424 2.763-.274.802-.679 1.481-1.214 2.038a5.104 5.104 0 0 1-1.916 1.248c-.743.282-1.582.423-2.518.423-.876 0-1.682-.14-2.417-.423a5.37 5.37 0 0 1-1.905-1.248c-.535-.557-.951-1.236-1.248-2.038-.29-.802-.435-1.723-.435-2.763 0-1.382.245-2.551.736-3.51.49-.958 1.188-1.685 2.094-2.183.906-.498 1.987-.747 3.242-.747 1.166 0 2.198.25 3.097.747.906.498 1.615 1.225 2.128 2.183.52.959.78 2.128.78 3.51zm-8.612 0c0 .817.089 1.504.267 2.06.179.558.457.977.836 1.26.379.282.873.423 1.482.423.601 0 1.088-.141 1.459-.423.379-.282.654-.702.825-1.26.178-.556.267-1.243.267-2.06 0-.825-.089-1.508-.267-2.05-.171-.55-.446-.962-.825-1.237-.379-.275-.873-.412-1.482-.412-.898 0-1.552.308-1.96.925-.401.616-.602 1.54-.602 2.774zM104.885 39.236v12.456h-3.409v-9.904h-4.512v9.904h-3.398V39.236h11.319zM85.331 38.98c1.671 0 2.953.364 3.844 1.092.891.728 1.337 1.834 1.337 3.32v8.3h-2.373l-.658-1.694h-.089c-.356.446-.72.81-1.091 1.092-.372.282-.799.49-1.282.624s-1.07.2-1.76.2c-.735 0-1.396-.14-1.983-.423a3.15 3.15 0 0 1-1.37-1.292c-.335-.587-.502-1.33-.502-2.228 0-1.322.465-2.295 1.393-2.92.928-.63 2.321-.98 4.178-1.046l2.161-.067v-.546c0-.654-.17-1.133-.512-1.437-.342-.305-.817-.457-1.426-.457-.602 0-1.192.085-1.772.256-.58.171-1.158.387-1.738.646l-1.125-2.295a9.669 9.669 0 0 1 2.217-.824c.824-.2 1.675-.3 2.551-.3zm1.805 6.94-1.315.045c-1.099.03-1.864.227-2.294.59-.424.365-.636.844-.636 1.438 0 .52.153.891.457 1.114.305.215.702.323 1.192.323.728 0 1.34-.215 1.838-.646.505-.43.758-1.044.758-1.838V45.92zM76.842 51.692h-3.443V38.278h-3.988l-.29 2.284a381.98 381.98 0 0 1-.323 2.496c-.111.839-.23 1.637-.356 2.395a41.801 41.801 0 0 1-.357 1.994c-.193.95-.456 1.76-.79 2.429-.327.66-.777 1.166-1.349 1.515-.564.349-1.303.524-2.217.524a5.577 5.577 0 0 1-1.649-.245v-2.83c.194.067.387.122.58.167.193.037.405.056.635.056a.996.996 0 0 0 .735-.29c.2-.2.379-.539.535-1.014.156-.483.312-1.147.468-1.994.067-.371.156-.895.267-1.57a193.055 193.055 0 0 0 .813-5.403c.156-1.086.305-2.214.446-3.388h10.283v16.288zM153.37 18.12c1.671 0 2.952.365 3.844 1.093.891.727 1.337 1.834 1.337 3.32v8.3h-2.373l-.658-1.694h-.089c-.356.445-.72.81-1.092 1.092-.371.282-.798.49-1.281.623-.483.134-1.069.201-1.76.201-.735 0-1.396-.141-1.983-.423a3.149 3.149 0 0 1-1.37-1.293c-.335-.586-.502-1.33-.502-2.228 0-1.322.465-2.295 1.393-2.919.928-.63 2.321-.98 4.178-1.047l2.161-.067v-.546c0-.653-.171-1.132-.513-1.437-.341-.304-.816-.456-1.426-.456-.601 0-1.192.085-1.771.256-.579.17-1.158.386-1.738.646l-1.125-2.295c.661-.35 1.4-.624 2.217-.824.824-.201 1.675-.301 2.551-.301zm1.805 6.941-1.315.045c-1.099.03-1.864.226-2.295.59-.423.364-.635.843-.635 1.438 0 .52.153.89.457 1.114.305.215.702.323 1.192.323.728 0 1.341-.216 1.838-.647.505-.43.758-1.043.758-1.838v-1.025zM142.763 18.377h3.744l-4.936 5.971 5.37 6.484h-3.855l-5.091-6.317v6.317h-3.398V18.377h3.398v6.05l4.768-6.05zM123.346 18.377v4.79h4.746v-4.79h3.398v12.455h-3.398v-5.136h-4.746v5.136h-3.398V18.377h3.398zM107.246 18.377v4.924c0 .253-.011.572-.033.958-.015.379-.037.765-.067 1.159-.03.393-.059.746-.089 1.058-.03.312-.052.524-.067.635l5.749-8.734h4.088v12.455h-3.286v-4.969c0-.408.015-.857.044-1.348.03-.497.063-.965.101-1.403.037-.438.063-.769.078-.992l-5.727 8.712h-4.077V18.377h3.286zM102.089 20.928h-4.078v9.904h-3.397v-9.904h-4.089v-2.551h11.564v2.551zM83.55 18.12c1.672 0 2.953.365 3.844 1.093.891.727 1.337 1.834 1.337 3.32v8.3h-2.373l-.657-1.694h-.09a6.31 6.31 0 0 1-1.091 1.092c-.372.282-.799.49-1.281.623-.483.134-1.07.201-1.76.201-.736 0-1.397-.141-1.984-.423a3.149 3.149 0 0 1-1.37-1.293c-.334-.586-.501-1.33-.501-2.228 0-1.322.464-2.295 1.392-2.919.929-.63 2.321-.98 4.178-1.047l2.161-.067v-.546c0-.653-.17-1.132-.512-1.437-.342-.304-.817-.456-1.426-.456-.602 0-1.192.085-1.772.256-.579.17-1.158.386-1.737.646l-1.126-2.295c.661-.35 1.4-.624 2.217-.824.825-.201 1.675-.301 2.552-.301zm1.805 6.941-1.314.045c-1.1.03-1.864.226-2.295.59-.424.364-.635.843-.635 1.438 0 .52.152.89.456 1.114.305.215.702.323 1.193.323.727 0 1.34-.216 1.838-.647.505-.43.757-1.043.757-1.838v-1.025zM77.122 30.832h-3.944l-3.787-6.16-3.788 6.16h-3.699l5.403-8.4-5.058-7.887h3.81l3.51 5.86 3.442-5.86h3.721l-5.113 8.077 5.503 8.21z" fill="#332C22"/></svg>